<?xml version="1.0" encoding="UTF-8"?>
<svg version="1.1" xmlns="http://www.w3.org/2000/svg" width="512" height="512">
<path d="M0 0 C11.55 0 23.1 0 35 0 C35.495 7.425 35.495 7.425 36 15 C39.41264552 17.55948414 42.06741591 19.0623575 45.9375 20.6875 C46.95714844 21.12449219 47.97679687 21.56148437 49.02734375 22.01171875 C52.05772881 23.01919236 53.85892839 23.545186 57 23 C59.76704543 21.05366199 59.76704543 21.05366199 62.3125 18.5 C63.19550781 17.6646875 64.07851563 16.829375 64.98828125 15.96875 C65.65214844 15.3190625 66.31601562 14.669375 67 14 C70.86328627 15.5847358 73.28876923 18.05956887 76.203125 21.0078125 C76.9271048 21.73603714 76.9271048 21.73603714 77.66571045 22.47897339 C79.19858562 24.02299866 80.72434004 25.57384824 82.25 27.125 C83.29120361 28.17624009 84.33286541 29.22702657 85.375 30.27734375 C87.92199464 32.84633004 90.46265177 35.42148161 93 38 C92.05146882 39.11256573 91.10208334 40.22440315 90.15234375 41.3359375 C89.62374756 41.9551709 89.09515137 42.5744043 88.55053711 43.21240234 C87.25147265 44.71007987 85.91154582 46.17218142 84.5625 47.625 C82.74162687 49.84163988 82.74162687 49.84163988 83.25 52.23046875 C84.12753597 55.47095314 85.23323033 58.55354005 86.4375 61.6875 C86.86933594 62.82574219 87.30117188 63.96398437 87.74609375 65.13671875 C88.8207226 68.06343336 88.8207226 68.06343336 91 70 C96.28 70.33 101.56 70.66 107 71 C107 82.88 107 94.76 107 107 C99.08 107.495 99.08 107.495 91 108 C88.78467828 111.69220287 86.94916413 115.08192742 85.25 119 C84.80140625 120.010625 84.3528125 121.02125 83.890625 122.0625 C82.89071245 125.36045717 82.77678637 126.79487062 84 130 C86.04541522 132.52756175 86.04541522 132.52756175 88.5625 134.8125 C89.80193359 135.99779297 89.80193359 135.99779297 91.06640625 137.20703125 C92.02353516 138.09455078 92.02353516 138.09455078 93 139 C88.18132753 144.80891746 82.98743592 150.13065552 77.625 155.4375 C76.79355469 156.26443359 75.96210938 157.09136719 75.10546875 157.94335938 C73.0725896 159.96455531 71.03740037 161.98336335 69 164 C65.78307754 162.47856723 63.70265358 160.83789861 61.1875 158.3125 C57.96961088 155.44671357 57.96961088 155.44671357 53.75 154.75 C44.15366015 157.6100034 44.15366015 157.6100034 36 163 C35.67 167.95 35.34 172.9 35 178 C23.45 178 11.9 178 0 178 C-0.33 173.38 -0.66 168.76 -1 164 C-6.52667385 158.47332615 -12.88842391 155.34263134 -20.75 154.6875 C-24.95072413 156.38394628 -27.20079059 158.96345613 -30.10546875 162.3828125 C-32 164 -32 164 -33.80688477 163.88330078 C-38.46491422 162.00722925 -41.7844251 157.73291763 -45.27392578 154.22705078 C-46.74528878 152.75471433 -48.23667273 151.30499686 -49.73046875 149.85546875 C-50.65988281 148.92863281 -51.58929688 148.00179687 -52.546875 147.046875 C-53.82836426 145.77602051 -53.82836426 145.77602051 -55.13574219 144.47949219 C-57 142 -57 142 -57.38549805 139.31567383 C-56.85423583 136.12439952 -55.45910586 135.05611643 -53.0625 132.9375 C-50.15975528 130.35216299 -48.54554889 128.88922115 -48 125 C-48.46973033 123.04823905 -48.46973033 123.04823905 -49.3984375 121.14453125 C-49.71296875 120.44005859 -50.0275 119.73558594 -50.3515625 119.00976562 C-50.68929687 118.28466797 -51.02703125 117.55957031 -51.375 116.8125 C-51.705 116.07580078 -52.035 115.33910156 -52.375 114.58007812 C-53.80208032 111.04351007 -53.80208032 111.04351007 -56 108 C-61.28 107.67 -66.56 107.34 -72 107 C-72 95.12 -72 83.24 -72 71 C-64.08 70.505 -64.08 70.505 -56 70 C-53.46203349 66.76986081 -52.95676058 65.69657498 -52 62 C-51.22395576 60.42968229 -50.4322087 58.86702773 -49.625 57.3125 C-48.22300575 54.55389981 -47.86785843 53.52208082 -48.63671875 50.484375 C-50.60312521 46.90089503 -53.38452733 44.64765971 -56.41796875 41.96484375 C-58 40 -58 40 -57.89697266 38.20458984 C-55.93602854 33.38495856 -51.39387294 29.87672224 -47.74487305 26.24389648 C-46.18915052 24.68914949 -44.65599133 23.11428047 -43.12304688 21.53710938 C-42.13932369 20.54818146 -41.1543391 19.56050637 -40.16796875 18.57421875 C-39.27360107 17.67276123 -38.3792334 16.77130371 -37.45776367 15.8425293 C-35 14 -35 14 -32.78173828 14.11450195 C-29.86781419 15.5626799 -28.14821983 17.95561434 -26.07421875 20.40625 C-23.05110777 22.72909234 -20.78607839 22.8888782 -17 23 C-13.27094988 21.96164922 -13.27094988 21.96164922 -9.6875 20.25 C-9.06810547 19.98445313 -8.44871094 19.71890625 -7.81054688 19.4453125 C-4.48708376 17.95859501 -3.06605917 17.09908876 -1 14 C-0.67 9.38 -0.34 4.76 0 0 Z M-16 62 C-18.38016734 65.18353619 -20.26977044 68.42533431 -22 72 C-22.33902344 72.68320313 -22.67804688 73.36640625 -23.02734375 74.0703125 C-26.60701307 82.74729896 -26.3322091 94.14011225 -23.375 102.9375 C-18.31601701 114.7124151 -10.28580479 123.6748489 1.4765625 129.03125 C11.46298149 132.86504552 22.15847545 133.05764653 32.25 129.3125 C46.1979202 123.00541777 53.66048038 113.74547715 59.3125 99.75 C61.64930938 87.00376702 59.90688692 75.54566024 52.75 64.6875 C45.25974485 54.76410464 35.75492862 48.28549779 23.36328125 46.28125 C7.74492566 44.42253661 -5.451302 50.72685205 -16 62 Z " fill="#1984EA" transform="translate(269,167)"/>
<path d="M0 0 C3.88793325 4.37194126 6.05461066 7.48574497 5.93359375 13.55859375 C5.00278806 18.79322376 1.45056827 22.35956024 -2.69921875 25.4375 C-5.23293928 27.01753944 -7.80224769 28.41880386 -10.4609375 29.77734375 C-11.24855469 30.19628906 -12.03617188 30.61523438 -12.84765625 31.046875 C-60.76228139 54.7409204 -129.78463563 52.19354926 -179.34423828 35.5078125 C-190.02284913 31.82264483 -202.45911165 26.9804477 -208.4609375 16.77734375 C-209.36974874 11.77478818 -209.25253639 8.18502865 -206.734375 3.70703125 C-194.22215904 -12.41695838 -167.36076678 -17.01149 -148.4609375 -20.22265625 C-147.0392627 -20.46822266 -147.0392627 -20.46822266 -145.58886719 -20.71875 C-104.1544687 -27.50529784 -33.47945548 -30.23779392 0 0 Z " fill="#1679E6" transform="translate(224.4609375,134.22265625)"/>
<path d="M0 0 C0.91128662 0.53471924 1.82257324 1.06943848 2.76147461 1.62036133 C9.20930505 5.37484388 15.55506373 9.06345332 22.5625 11.6875 C23.30443604 11.96948242 24.04637207 12.25146484 24.81079102 12.54199219 C46.5306214 20.48272072 70.62761889 24.09203502 93.6953125 24.203125 C95.16911125 24.21371445 95.16911125 24.21371445 96.67268372 24.22451782 C124.93280587 24.38151618 150.76926295 22.97336668 178.19360352 15.61669922 C179.11971436 15.41318848 180.0458252 15.20967773 181 15 C181.62518524 14.84294586 182.25037048 14.68589172 182.89450073 14.52407837 C187.02314694 13.69304032 188.4813533 13.68019422 192.203125 15.97509766 C193.24293396 16.92904487 194.2577774 17.91071198 195.25 18.9140625 C195.79358154 19.43954681 196.33716309 19.96503113 196.8972168 20.50643921 C198.037717 21.62335377 199.16674012 22.75209458 200.28466797 23.89160156 C201.98709471 25.61195879 203.73944423 27.26550171 205.50390625 28.921875 C210.9093577 34.20020143 214.74152267 38.12912013 214.93359375 46.05859375 C214.54943969 51.41380982 212.97717605 54.61817634 209.1015625 58.30078125 C208.40804687 58.86152344 207.71453125 59.42226563 207 60 C206.34773437 60.52980469 205.69546875 61.05960937 205.0234375 61.60546875 C167.94507631 88.61573561 103.86094179 86.22866776 61.08691406 79.53613281 C15.57503545 71.63166544 15.57503545 71.63166544 2.8125 56.6875 C0.35457748 53.0429942 -0.12402556 51.34658012 -0.11352539 46.99951172 C-0.11344986 45.95858368 -0.11337433 44.91765564 -0.11329651 43.84518433 C-0.10813522 42.71807037 -0.10297394 41.59095642 -0.09765625 40.4296875 C-0.0962413 39.27832306 -0.09482635 38.12695862 -0.09336853 36.94070435 C-0.08775716 33.25211014 -0.0752027 29.56357595 -0.0625 25.875 C-0.05748647 23.37890712 -0.05292331 20.8828133 -0.04882812 18.38671875 C-0.03778403 12.25779191 -0.0210348 6.12890024 0 0 Z M19.6875 36.125 C17.78950188 37.90028033 17.78950188 37.90028033 17.5625 40.5 C18.0851544 43.48659656 18.69587998 44.10099998 21 46 C24.23723745 47.53082923 27.44004564 48.5691775 31 49 C34.14853464 47.40372939 34.14853464 47.40372939 36 45 C36.12815365 42.6147267 36.12815365 42.6147267 35 40 C30.72996196 36.96707579 24.69805197 33.68743418 19.6875 36.125 Z " fill="#074DD7" transform="translate(16,301)"/>
<path d="M0 0 C1.73970501 0.94769334 3.47925875 1.89566437 5.21875 2.84375 C6.18748047 3.37162109 7.15621094 3.89949219 8.15429688 4.44335938 C9.92565863 5.41231979 11.69378075 6.38725693 13.45678711 7.37133789 C27.18997372 14.95749175 43.65297447 18.41137986 59 21 C59.8775293 21.15098145 60.75505859 21.30196289 61.65917969 21.45751953 C91.78705697 26.37971591 124.93567691 26.28212739 155 21 C155.98645508 20.82839355 156.97291016 20.65678711 157.98925781 20.47998047 C176.60940871 17.10955846 193.59441778 11.46379857 210 2 C211.32754075 1.32187186 212.65852317 0.65012471 214 0 C214.36694336 2.59863281 214.36694336 2.59863281 214 6 C212.10501014 8.4069208 210.33549833 10.34338688 208.12890625 12.421875 C207.53198471 13.00793518 206.93506317 13.59399536 206.3200531 14.19781494 C204.41453389 16.06321026 202.48954047 17.90686934 200.5625 19.75 C198.6435253 21.61159512 196.72873059 23.47737264 194.81565857 25.34503174 C193.62476285 26.50476467 192.42960939 27.66014437 191.22987366 28.81072998 C187.65779654 32.25431656 185.84551548 34.16685285 185.5 39.125 C185.50682712 43.35781713 186.61632096 45.25958756 189.4375 48.375 C190.39462891 49.31472656 190.39462891 49.31472656 191.37109375 50.2734375 C193 52 193 52 194 55 C193.07796291 57.36522558 192.08301035 59.70401807 191 62 C190.11957031 62.02578125 189.23914063 62.0515625 188.33203125 62.078125 C186.58986328 62.16320312 186.58986328 62.16320312 184.8125 62.25 C183.66394531 62.29640625 182.51539063 62.3428125 181.33203125 62.390625 C177.32282809 63.12384387 175.72026944 63.96566748 173 67 C172.01675008 69.67699783 171.51799145 72.17459211 171 75 C124.13955188 88.94487655 58.90003523 87.79662808 14.7734375 65.359375 C12.43396599 63.99295801 10.20691047 62.56915464 8 61 C7.030625 60.319375 6.06125 59.63875 5.0625 58.9375 C2.09463911 56.14950947 0.2120235 53.51357856 -0.36076355 49.42460632 C-0.35410172 48.51193497 -0.34743988 47.59926361 -0.34057617 46.65893555 C-0.34034958 45.6182341 -0.34012299 44.57753265 -0.33988953 43.5052948 C-0.32440567 42.3936647 -0.30892181 41.28203461 -0.29296875 40.13671875 C-0.28872391 38.98959915 -0.28447906 37.84247955 -0.28010559 36.66059875 C-0.26333484 33.00265879 -0.22568435 29.345273 -0.1875 25.6875 C-0.17245114 23.20508609 -0.15876309 20.72266353 -0.14648438 18.24023438 C-0.11343649 12.15996769 -0.0632524 6.08002344 0 0 Z M19.25 36.1875 C17.5421277 38.66391483 17.48439167 40.05366671 18 43 C21.39768437 46.39768437 25.40552392 47.84055239 30.125 48.3125 C32.96558075 48.2109425 32.96558075 48.2109425 34.9375 46.8125 C36.21071646 44.99070369 36.21071646 44.99070369 36 42.5 C34.37187871 38.42969678 31.24277077 37.57591816 27.4375 35.8125 C24.38003316 34.79334439 22.03000347 34.30106907 19.25 36.1875 Z " fill="#1068E1" transform="translate(16,166)"/>
<path d="M0 0 C0.73859253 0.47911835 1.47718506 0.95823669 2.23815918 1.45187378 C3.21595337 2.08118805 4.19374756 2.71050232 5.20117188 3.35888672 C6.1666394 3.98238007 7.13210693 4.60587341 8.12683105 5.2482605 C12.09676973 7.66868844 16.16911149 9.46022627 20.5 11.125 C21.36109375 11.45918945 22.2221875 11.79337891 23.109375 12.13769531 C67.86979989 29.07009289 119.52666062 28.37235366 165.92895508 19.33544922 C168 19 168 19 171 19 C171.0093457 19.73114014 171.01869141 20.46228027 171.02832031 21.21557617 C171.08212664 24.54022718 171.16575504 27.86348678 171.25 31.1875 C171.26417969 32.33798828 171.27835938 33.48847656 171.29296875 34.67382812 C171.32519531 35.78564453 171.35742188 36.89746094 171.390625 38.04296875 C171.41157227 39.06414795 171.43251953 40.08532715 171.45410156 41.13745117 C172.13272718 44.69598667 173.52424308 46.40172961 176 49 C178.83269666 50.41634833 181.47466438 50.3463005 184.625 50.5625 C185.81351563 50.64628906 187.00203125 50.73007812 188.2265625 50.81640625 C189.59941406 50.90728516 189.59941406 50.90728516 191 51 C191.99 53.97 192.98 56.94 194 60 C192.2421875 61.66015625 190.484375 63.3203125 188.7265625 64.98046875 C186.83619872 66.917146 186.83619872 66.917146 186.22265625 69.578125 C185 72 185 72 181.89453125 73.44140625 C180.54104947 73.84037909 179.17936757 74.21212118 177.8125 74.5625 C177.06564941 74.76593018 176.31879883 74.96936035 175.54931641 75.17895508 C125.84932663 88.1531936 57.62522308 90.73582227 11.66992188 64.05859375 C7.25875423 61.26227461 2.37959522 57.75919043 0 53 C-0.09051069 51.30456409 -0.11754872 49.60556022 -0.11352539 47.90771484 C-0.11344986 46.84676605 -0.11337433 45.78581726 -0.11329651 44.69271851 C-0.10813522 43.54373077 -0.10297394 42.39474304 -0.09765625 41.2109375 C-0.0962413 40.03737701 -0.09482635 38.86381653 -0.09336853 37.6546936 C-0.08775689 33.89477015 -0.07520238 30.13490555 -0.0625 26.375 C-0.0574865 23.83073002 -0.05292333 21.28645912 -0.04882812 18.7421875 C-0.03778368 12.49477147 -0.02103418 6.24738994 0 0 Z M18 38 C17.83318891 41.08347826 17.83318891 41.08347826 18 44 C24.62965215 47.72321065 24.62965215 47.72321065 32 49 C34.54331238 47.45714369 34.54331238 47.45714369 36 45 C36.1576585 42.87957244 36.1576585 42.87957244 35 41 C31.41132636 37.66766019 27.67097404 36.13105679 22.8125 35.75 C19.86321004 35.70897487 19.86321004 35.70897487 18 38 Z " fill="#0B58DB" transform="translate(16,233)"/>
<path d="M0 0 C6.55245945 5.27910701 10.31531039 12.62034689 11.56640625 20.875 C12.24204181 30.07514374 10.17007202 39.29002258 4.4375 46.6875 C-2.88527499 54.01027499 -10.18671455 57.4414709 -20.625 57.8125 C-29.80188593 57.55550436 -37.73339565 54.96563006 -44.4609375 48.5703125 C-50.52170625 41.13329932 -53.6701722 32.44011012 -53.52734375 22.90234375 C-52.53179428 13.83022397 -48.15942325 5.3975019 -41.109375 -0.37890625 C-28.02695799 -9.61224479 -13.06305976 -8.69224393 0 0 Z " fill="#1984EA" transform="translate(307.25,230.625)"/>
<path d="M0 0 C4.29 0 8.58 0 13 0 C13 12.54 13 25.08 13 38 C39.07 38 65.14 38 92 38 C92 42.29 92 46.58 92 51 C80.74303322 51.09268237 69.48615723 51.16375619 58.2288866 51.20724869 C53.00165644 51.22812301 47.77468734 51.25643808 42.54760742 51.30175781 C37.50311912 51.34522071 32.45888191 51.36913827 27.41422081 51.37950897 C25.48967219 51.38689952 23.5651373 51.40133154 21.64069557 51.42292023 C18.94481337 51.45196014 16.24996853 51.45595577 13.55395508 51.45410156 C12.36064827 51.47567322 12.36064827 51.47567322 11.14323425 51.49768066 C7.48635319 51.4704675 5.19135489 51.11040155 2.00085449 49.26965332 C-0.30534523 46.65363408 -0.6137625 45.66393017 -0.56762695 42.23144531 C-0.5672493 41.29077209 -0.56687164 40.35009888 -0.56648254 39.38092041 C-0.54067612 38.37349792 -0.51486969 37.36607544 -0.48828125 36.328125 C-0.48120651 35.29057068 -0.47413177 34.25301636 -0.46684265 33.184021 C-0.43886641 29.87194552 -0.37611929 26.56156401 -0.3125 23.25 C-0.28742143 21.00393067 -0.26460749 18.75783483 -0.24414062 16.51171875 C-0.18902865 11.00716036 -0.10273127 5.50386732 0 0 Z " fill="#126DE2" transform="translate(280,356)"/>
<path d="M0 0 C1.27393616 -0.00087616 1.27393616 -0.00087616 2.5736084 -0.00177002 C5.37135165 0.0010092 8.16801983 0.03209314 10.96557617 0.06347656 C12.90898558 0.07093954 14.85240252 0.0766322 16.79582214 0.08062744 C21.90384806 0.0958793 27.01141698 0.13515741 32.1192627 0.17944336 C37.33424701 0.22040563 42.54930538 0.23864051 47.7644043 0.25878906 C57.99181831 0.30165196 68.21889357 0.36989801 78.44604492 0.45410156 C78.44604492 4.74410156 78.44604492 9.03410156 78.44604492 13.45410156 C52.37604492 13.45410156 26.30604492 13.45410156 -0.55395508 13.45410156 C-0.55395508 25.99410156 -0.55395508 38.53410156 -0.55395508 51.45410156 C-4.84395508 51.45410156 -9.13395508 51.45410156 -13.55395508 51.45410156 C-13.67752322 44.83389102 -13.76828115 38.21435112 -13.82861328 31.59326172 C-13.85376251 29.34086414 -13.88788625 27.0885482 -13.93115234 24.83642578 C-13.99178408 21.59940456 -14.02016099 18.36346184 -14.04223633 15.12597656 C-14.06804276 14.11855408 -14.09384918 13.11113159 -14.12043762 12.07318115 C-14.12081528 11.13250793 -14.12119293 10.19183472 -14.12158203 9.22265625 C-14.13268509 8.39658875 -14.14378815 7.57052124 -14.15522766 6.71942139 C-13.55395508 4.45410156 -13.55395508 4.45410156 -11.55310059 2.18444824 C-7.66918743 -0.05636209 -4.35773924 -0.07877576 0 0 Z " fill="#25A7F6" transform="translate(293.553955078125,104.5458984375)"/>
<path d="M0 0 C2.20671485 0.01680254 4.41346346 0.02960593 6.620224 0.03858948 C12.40626002 0.07282378 18.19023701 0.16111799 23.97546387 0.26092529 C29.88765614 0.35327472 35.80018376 0.39415751 41.71289062 0.43945312 C53.29777577 0.53574724 64.88113802 0.68919279 76.46484375 0.87890625 C76.46484375 5.16890625 76.46484375 9.45890625 76.46484375 13.87890625 C40.16484375 13.87890625 3.86484375 13.87890625 -33.53515625 13.87890625 C-25.88453055 -1.42234515 -15.41339342 -0.34470224 0 0 Z " fill="#1D90EE" transform="translate(386.53515625,318.12109375)"/>
<path d="M0 0 C36.3 0 72.6 0 110 0 C110 4.29 110 8.58 110 13 C97.28245858 13.25549796 84.56553301 13.4506359 71.8459425 13.56993389 C65.93876835 13.62720894 60.03335693 13.70481802 54.12719727 13.82983398 C48.42117971 13.94984995 42.71685115 14.01522748 37.00966835 14.04364967 C34.83865085 14.06388815 32.66772012 14.10341253 30.49742699 14.16303062 C11.7074289 14.65840137 11.7074289 14.65840137 5.52776814 9.08694935 C0 3.25132857 0 3.25132857 0 0 Z " fill="#27ADF8" transform="translate(353,180)"/>
<path d="M0 0 C2.64233769 2.19257809 4.46669809 3.93339618 6 7 C6.39431433 11.73177192 6.45299639 14.09400722 4.3125 18.375 C1.80601659 21.22019739 0.68897534 22.24543686 -3 23 C-7.67834545 23.15214132 -10.27601352 22.60075474 -13.9375 19.5625 C-17.23749851 15.46250185 -17.53628589 12.16423453 -17 7 C-15.61351682 3.53379206 -14.37469941 2.2614182 -11.3125 0.125 C-7.19219115 -1.27435017 -4.13017254 -1.41921567 0 0 Z " fill="#24A5F5" transform="translate(445,245)"/>
<path d="M0 0 C3.57623788 1.9137306 5.69762236 4.09286708 7 8 C7.40109454 12.25160217 7.26378256 14.5006973 5.25 18.3125 C2.04099248 22.14548121 0.52401498 22.86145318 -4.4375 23.3125 C-9.10887978 22.90272984 -11.38772536 21.44548761 -14.8125 18.375 C-16.68587786 14.62824429 -16.77902557 11.09342525 -16 7 C-12.2401516 0.28797434 -7.26699693 -1.10955826 0 0 Z " fill="#177CE8" transform="translate(399,389)"/>
<path d="M0 0 C3.02508145 1.73602105 5.41790069 3.83580137 7 7 C7.43808718 11.28819956 7.44926618 14.94422448 5.75 18.9375 C3.80470008 21.2301749 2.87852015 22.14422374 0 23 C-5.31237628 23.42161717 -8.73772763 23.53159711 -13 20 C-15.75199394 16.88107353 -16.22806081 14.53801787 -16 10.5 C-15.33090719 5.98926194 -13.63130205 3.83418696 -10 1 C-6.77140153 -0.61429923 -3.49006347 -0.59570657 0 0 Z " fill="#22A0F3" transform="translate(489,314)"/>
<path d="M0 0 C2.77707737 2.28700489 3.88347523 4.35169872 4.49609375 7.8984375 C4.6223398 12.13139331 4.49850209 14.89342222 1.75 18.25 C-1.82090962 21.65086631 -3.81586162 22.10336019 -8.7734375 22.03125 C-12.25350484 21.56551608 -14.28413197 20.03243136 -16.875 17.75 C-18.98363429 14.10781349 -19.38462203 10.91191328 -18.875 6.75 C-17.25592222 3.74314126 -15.81922632 1.4918921 -13.125 -0.625 C-8.42901585 -1.92944004 -4.41286588 -1.91863734 0 0 Z " fill="#2CBEFD" transform="translate(491.875,176.25)"/>
<path d="M0 0 C3.08193978 1.6281946 5.26420667 3.03009062 7.375 5.8125 C8.59875016 10.09562557 8.59895652 13.68229565 6.75 17.75 C4.37915366 20.798231 2.89326128 22.67120844 -1.046875 23.35546875 C-5.30922172 23.62007752 -8.13064703 23.37582441 -11.5 20.625 C-15.13429102 16.80899443 -15.39670447 14.44135464 -15.35546875 9.328125 C-14.75147582 5.37230319 -12.89542195 3.69341577 -10 1 C-6.38069302 -0.20643566 -3.80768995 -0.32268559 0 0 Z " fill="#2CBAFC" transform="translate(398,100)"/>
<path d="M0 0 C10.23 0 20.46 0 31 0 C31 3.96 31 7.92 31 12 C20.77 12 10.54 12 0 12 C0 8.04 0 4.08 0 0 Z " fill="#229DF2" transform="translate(387,250)"/>
</svg>
